<svg width="512" height="512" xmlns="http://www.w3.org/2000/svg" class="ionicon">
 <title>Volume Mute</title>

 <g>
  <title>background</title>
  <rect fill="none" id="canvas_background" height="402" width="582" y="-1" x="-1"/>
 </g>
 <g>
  <title>Layer 1</title>
  <path stroke="#ffffff" fill="#ffffff" id="svg_2" d="m352,256c0,-24.56 -5.81,-47.88 -17.75,-71.27l-7.25,-14.26l-28.52,14.53l7.27,14.25c9.59,18.81 14.25,37.37 14.25,56.75a112.91,112.91 0 0 1 -0.63,11.74l27.32,27.32a148.8,148.8 0 0 0 5.31,-39.06zm64,0c0,-51.19 -13.08,-83.89 -34.18,-120.06l-8.06,-13.82l-27.64,16.12l8.06,13.82c18.89,32.38 29.82,59.77 29.82,103.94c0,25.93 -3.89,46.21 -11,65.33l24.5,24.51c11.69,-26.16 18.5,-53.42 18.5,-89.84z"/>
  <path stroke="#ffffff" id="svg_1" d="m416,432l-352,-348.213085" stroke-width="32" stroke-miterlimit="10" stroke-linecap="square" fill="#ffffff"/>
  <path stroke="#ffffff" fill="#ffffff" id="svg_3" d="m480,255.242615c0,-74.26 -20.19,-121.11 -50.51,-168.61l-8.61,-13.49l-27,17.22l8.61,13.49c27.33,42.77 45.51,84.89 45.51,151.39c0,48.76 -9.4,84 -24.82,115.55l23.7,23.7c23.28,-43.86 33.12,-86.25 33.12,-139.25zm-224,-184l-73.6,58.78l73.6,73.59l0,-132.37zm-224,104.1l0,159.8l93.65,0l130.35,104.1l0,-100.37l-163.53,-163.53l-60.47,0z"/>
 </g>
</svg>